<svg width="925" height="568" viewBox="0 0 925 568" fill="pink" xmlns="http://www.w3.org/2000/svg">
<g filter="url(#filter0_d)">
<path fill-rule="evenodd" clip-rule="evenodd" d="M504.846 0.00868648C421.007 0.630043 358.038 44.6978 283.117 69.6305C188.545 101.103 40.9144 98.2226 8.91364 165.048C-23.1463 231.997 110.691 282.917 149.706 348.226C184.913 407.16 152.926 485.237 225.067 526.873C297.869 568.89 409.289 562.379 504.846 553.191C590.439 544.96 661.394 511.991 731.24 478.201C800.898 444.501 878.994 412.382 907.412 358.434C936.096 303.98 915.286 243.95 882.823 190.436C852.035 139.682 795.933 99.4295 730.208 66.317C663.142 32.5285 589.1 -0.61575 504.846 0.00868648Z" fill="#CC6699"/>
</g>
<defs>
<filter id="filter0_d" x="0" y="0" width="925" height="568" filterUnits="userSpaceOnUse" color-interpolation-filters="sRGB">
<feFlood flood-opacity="0" result="BackgroundImageFix"/>
<feColorMatrix in="SourceAlpha" type="matrix" values="0 0 0 0 0 0 0 0 0 0 0 0 0 0 0 0 0 0 127 0"/>
<feOffset dy="4"/>
<feGaussianBlur stdDeviation="2"/>
<feColorMatrix type="matrix" values="0 0 0 0 0 0 0 0 0 0 0 0 0 0 0 0 0 0 0.25 0"/>
<feBlend mode="normal" in2="BackgroundImageFix" result="effect1_dropShadow"/>
<feBlend mode="normal" in="SourceGraphic" in2="effect1_dropShadow" result="shape"/>
</filter>
</defs>
</svg>
